<?xml version="1.0" standalone="no"?>
<!DOCTYPE svg PUBLIC "-//W3C//DTD SVG 20010904//EN"
 "http://www.w3.org/TR/2001/REC-SVG-20010904/DTD/svg10.dtd">
<svg version="1.0" xmlns="http://www.w3.org/2000/svg"
 width="292.000000pt" height="285.000000pt" viewBox="0 0 292.000000 285.000000"
 preserveAspectRatio="xMidYMid meet">

<g transform="translate(0.000000,285.000000) scale(0.100000,-0.100000)"
fill="#CB2121" stroke="none">
<path d="M1162 2405 c-20 -9 -44 -33 -64 -65 l-31 -50 -208 0 c-207 0 -207 0
-238 -25 -62 -53 -62 -137 0 -190 l31 -25 789 0 c687 0 794 2 819 15 69 36 80
144 21 197 l-31 28 -210 0 -210 0 -32 51 c-47 77 -55 79 -350 79 -196 -1 -260
-4 -286 -15z"/>
<path d="M700 1908 c0 -7 9 -148 20 -313 11 -165 26 -417 35 -560 25 -440 27
-459 42 -495 19 -47 50 -79 98 -101 37 -17 76 -19 555 -19 515 0 516 0 560 23
49 24 85 70 99 126 5 20 16 167 25 326 9 160 21 360 27 445 23 347 36 565 32
573 -2 4 -339 7 -749 7 -588 0 -744 -3 -744 -12z"/>
</g>
</svg>
