<?xml version="1.0" standalone="no"?>
<!DOCTYPE svg PUBLIC "-//W3C//DTD SVG 20010904//EN"
 "http://www.w3.org/TR/2001/REC-SVG-20010904/DTD/svg10.dtd">
<svg version="1.0" xmlns="http://www.w3.org/2000/svg"
 width="345.000000pt" height="310.000000pt" viewBox="0 0 345.000000 310.000000"
 preserveAspectRatio="xMidYMid meet">

<g transform="translate(0.000000,310.000000) scale(0.100000,-0.100000)"
fill="#000000" stroke="none">
<path d="M1090 2401 c-33 -27 -35 -32 -35 -91 0 -59 2 -64 35 -91 l34 -29 196
0 c216 0 261 -8 341 -58 53 -34 116 -121 97 -134 -7 -4 -154 -8 -325 -8 l-313
0 -31 -28 c-39 -35 -50 -102 -24 -151 29 -58 50 -61 395 -61 l310 0 -19 -37
c-27 -53 -76 -97 -141 -127 -53 -25 -62 -26 -253 -26 -210 0 -243 -6 -282 -50
-15 -16 -20 -36 -20 -75 0 -39 5 -59 20 -75 11 -12 224 -168 473 -346 430
-307 456 -324 498 -324 86 0 147 90 111 165 -18 39 -44 59 -352 276 -132 94
-241 174 -243 179 -2 4 22 14 52 20 171 35 351 203 401 374 l12 41 94 5 c52 3
104 11 116 18 59 33 69 140 19 191 -24 24 -35 26 -122 31 l-96 5 -39 90 c-22
50 -39 93 -39 97 0 3 61 8 135 10 132 3 135 4 162 31 24 24 28 35 28 87 0 52
-4 63 -28 87 l-27 28 -553 3 -552 2 -35 -29z"/>
</g>
</svg>
